<svg xmlns="http://www.w3.org/2000/svg" viewBox="0 0 1024 300">
  <!-- Tropical volcanic - warm tans with muted greens -->
  <defs>
    <linearGradient id="sky-2021" x1="0%" y1="0%" x2="0%" y2="100%">
      <stop offset="0%" style="stop-color:#E8D5C9;stop-opacity:1" />
      <stop offset="40%" style="stop-color:#D8C5B9;stop-opacity:1" />
      <stop offset="100%" style="stop-color:#C8B5A9;stop-opacity:1" />
    </linearGradient>
  </defs>

  <rect width="1024" height="300" fill="url(#sky-2021)" rx="12"/>

  <!-- Sun -->
  <circle cx="820" cy="80" r="45" fill="#F5E5D8" opacity="0.7"/>
  <circle cx="820" cy="80" r="38" fill="#FFF5EA" opacity="0.8"/>

  <!-- Distant volcanic mountain -->
  <path d="M 0 180 L 300 110 L 512 80 L 700 120 L 1024 160 L 1024 300 L 0 300 Z"
        fill="#A89888" opacity="0.4"/>

  <!-- Closer volcanic slopes -->
  <path d="M 0 210 L 350 160 L 600 190 L 900 170 L 1024 195 L 1024 300 L 0 300 Z"
        fill="#988878" opacity="0.6"/>

  <!-- Foreground lava rock -->
  <ellipse cx="180" cy="260" rx="60" ry="25" fill="#786858" opacity="0.5"/>
  <ellipse cx="650" cy="270" rx="80" ry="30" fill="#786858" opacity="0.5"/>
  <ellipse cx="920" cy="265" rx="65" ry="28" fill="#786858" opacity="0.5"/>

  <!-- Simple palm silhouettes -->
  <g opacity="0.6">
    <line x1="240" y1="280" x2="240" y2="230" stroke="#685848" stroke-width="4"/>
    <path d="M 240 235 Q 220 225 210 230" stroke="#685848" stroke-width="3" fill="none"/>
    <path d="M 240 235 Q 260 220 270 222" stroke="#685848" stroke-width="3" fill="none"/>
    <path d="M 240 235 Q 230 240 220 245" stroke="#685848" stroke-width="3" fill="none"/>
    <path d="M 240 235 Q 250 238 265 242" stroke="#685848" stroke-width="3" fill="none"/>

    <line x1="780" y1="275" x2="780" y2="235" stroke="#685848" stroke-width="4"/>
    <path d="M 780 240 Q 760 232 750 236" stroke="#685848" stroke-width="3" fill="none"/>
    <path d="M 780 240 Q 800 228 810 232" stroke="#685848" stroke-width="3" fill="none"/>
    <path d="M 780 240 Q 770 245 760 250" stroke="#685848" stroke-width="3" fill="none"/>
    <path d="M 780 240 Q 790 243 805 247" stroke="#685848" stroke-width="3" fill="none"/>
  </g>

  <!-- Year text -->
  <text x="514" y="172" font-family="system-ui, -apple-system, sans-serif" font-size="80" font-weight="700" fill="#988878" text-anchor="middle" opacity="0.25">2021</text>
  <text x="512" y="170" font-family="system-ui, -apple-system, sans-serif" font-size="80" font-weight="700" fill="#FCFAF8" text-anchor="middle">2021</text>
</svg>
