<svg xmlns="http://www.w3.org/2000/svg" viewBox="0 0 800 300">
  <!-- Mountain landscape with evergreen forest -->
  <defs>
    <linearGradient id="sky-2021" x1="0%" y1="0%" x2="0%" y2="100%">
      <stop offset="0%" style="stop-color:#B8D8E8;stop-opacity:1" />
      <stop offset="100%" style="stop-color:#D4E8D0;stop-opacity:1" />
    </linearGradient>
  </defs>

  <rect width="800" height="300" fill="url(#sky-2021)" rx="12"/>

  <!-- Distant mountain peaks - cooler blue-grey -->
  <path d="M 0 180 L 150 120 L 250 90 L 350 110 L 450 80 L 550 100 L 650 120 L 800 140 L 800 300 L 0 300 Z"
        fill="#9BB5C1" opacity="0.4"/>

  <!-- Mid mountains - blue-green -->
  <path d="M 0 200 L 200 150 L 350 170 L 500 140 L 700 165 L 800 180 L 800 300 L 0 300 Z"
        fill="#7A9FA8" opacity="0.5"/>

  <!-- Closer mountains -->
  <path d="M 0 230 L 150 190 L 300 210 L 450 185 L 600 205 L 800 215 L 800 300 L 0 300 Z"
        fill="#7FA57D" opacity="0.7"/>

  <!-- Forest floor -->
  <path d="M 0 260 L 800 260 L 800 300 L 0 300 Z"
        fill="#6B8E6F"/>

  <!-- Pine trees (evergreen forest) -->
  <g opacity="0.8">
    <!-- Tree 1 -->
    <polygon points="120,250 105,270 135,270" fill="#4A5E4C"/>
    <polygon points="120,240 110,255 130,255" fill="#4A5E4C"/>
    <rect x="117" y="270" width="6" height="20" fill="#5D4E3F"/>

    <!-- Tree 2 -->
    <polygon points="200,245 185,265 215,265" fill="#4A5E4C"/>
    <polygon points="200,235 190,250 210,250" fill="#4A5E4C"/>
    <rect x="197" y="265" width="6" height="25" fill="#5D4E3F"/>

    <!-- Tree 3 -->
    <polygon points="280,255 265,275 295,275" fill="#4A5E4C"/>
    <polygon points="280,245 270,260 290,260" fill="#4A5E4C"/>
    <rect x="277" y="275" width="6" height="15" fill="#5D4E3F"/>

    <!-- Tree 4 -->
    <polygon points="380,248 365,268 395,268" fill="#4A5E4C"/>
    <polygon points="380,238 370,253 390,253" fill="#4A5E4C"/>
    <rect x="377" y="268" width="6" height="22" fill="#5D4E3F"/>

    <!-- Tree 5 -->
    <polygon points="480,252 465,272 495,272" fill="#4A5E4C"/>
    <polygon points="480,242 470,257 490,257" fill="#4A5E4C"/>
    <rect x="477" y="272" width="6" height="18" fill="#5D4E3F"/>

    <!-- Tree 6 -->
    <polygon points="580,246 565,266 595,266" fill="#4A5E4C"/>
    <polygon points="580,236 570,251 590,251" fill="#4A5E4C"/>
    <rect x="577" y="266" width="6" height="24" fill="#5D4E3F"/>

    <!-- Tree 7 -->
    <polygon points="680,254 665,274 695,274" fill="#4A5E4C"/>
    <polygon points="680,244 670,259 690,259" fill="#4A5E4C"/>
    <rect x="677" y="274" width="6" height="16" fill="#5D4E3F"/>
  </g>

  <!-- Smaller distant trees -->
  <g opacity="0.5">
    <polygon points="150,220 140,235 160,235" fill="#5E7361"/>
    <polygon points="340,215 330,230 350,230" fill="#5E7361"/>
    <polygon points="520,218 510,233 530,233" fill="#5E7361"/>
    <polygon points="720,222 710,237 730,237" fill="#5E7361"/>
  </g>

  <!-- Year text with shadow -->
  <text x="402" y="172" font-family="Arial, sans-serif" font-size="80" font-weight="bold" fill="#6B8E6F" text-anchor="middle" opacity="0.3">2021</text>
  <text x="400" y="170" font-family="Arial, sans-serif" font-size="80" font-weight="bold" fill="white" text-anchor="middle">2021</text>
</svg>
