<svg xmlns="http://www.w3.org/2000/svg" viewBox="0 0 800 300">
  <!-- Sky gradient -->
  <defs>
    <linearGradient id="sky-2022" x1="0%" y1="0%" x2="0%" y2="100%">
      <stop offset="0%" style="stop-color:#87CEEB;stop-opacity:1" />
      <stop offset="100%" style="stop-color:#B0E0E6;stop-opacity:1" />
    </linearGradient>
  </defs>

  <rect width="800" height="300" fill="url(#sky-2022)" rx="12"/>

  <!-- Distant mountains -->
  <path d="M 0 150 L 200 100 L 400 130 L 600 90 L 800 120 L 800 300 L 0 300 Z"
        fill="#A5C5A1" opacity="0.6"/>

  <!-- Mid mountains -->
  <path d="M 0 180 L 150 140 L 300 160 L 450 130 L 600 155 L 750 145 L 800 160 L 800 300 L 0 300 Z"
        fill="#82A686" opacity="0.8"/>

  <!-- Foreground hills -->
  <path d="M 0 220 L 200 200 L 400 210 L 600 195 L 800 215 L 800 300 L 0 300 Z"
        fill="#6B8E6F"/>

  <!-- Pine trees -->
  <g opacity="0.7">
    <path d="M 100 240 L 95 220 L 90 240 L 95 225 L 85 240 L 95 210 L 105 240 L 95 225 L 110 240 L 95 220 L 100 240 Z" fill="#4A5E4C"/>
    <path d="M 250 250 L 245 230 L 240 250 L 245 235 L 235 250 L 245 220 L 255 250 L 245 235 L 260 250 L 245 230 L 250 250 Z" fill="#4A5E4C"/>
    <path d="M 650 230 L 645 210 L 640 230 L 645 215 L 635 230 L 645 200 L 655 230 L 645 215 L 660 230 L 645 210 L 650 230 Z" fill="#4A5E4C"/>
  </g>

  <!-- Year text with shadow -->
  <text x="402" y="102" font-family="Arial, sans-serif" font-size="80" font-weight="bold" fill="#4A5E4C" text-anchor="middle" opacity="0.3">2022</text>
  <text x="400" y="100" font-family="Arial, sans-serif" font-size="80" font-weight="bold" fill="white" text-anchor="middle">2022</text>
</svg>