<svg xmlns="http://www.w3.org/2000/svg" viewBox="0 0 1024 300">
  <!-- Meadow with wildflowers -->
  <defs>
    <linearGradient id="sky-2024" x1="0%" y1="0%" x2="0%" y2="100%">
      <stop offset="0%" style="stop-color:#C8E6C9;stop-opacity:1" />
      <stop offset="100%" style="stop-color:#EDF5EA;stop-opacity:1" />
    </linearGradient>
  </defs>

  <rect width="1024" height="300" fill="url(#sky-2024)" rx="12"/>

  <!-- Distant rolling hills -->
  <path d="M 0 160 L 256 145 L 512 155 L 768 140 L 1024 150 L 1024 300 L 0 300 Z"
        fill="#A5C5A1" opacity="0.5"/>

  <!-- Mid hills -->
  <path d="M 0 190 L 320 175 L 640 185 L 960 178 L 1024 185 L 1024 300 L 0 300 Z"
        fill="#82A686" opacity="0.6"/>

  <!-- Meadow -->
  <path d="M 0 225 L 384 215 L 640 220 L 1024 217 L 1024 300 L 0 300 Z"
        fill="#7FA57D"/>

  <!-- Grass texture -->
  <g opacity="0.4">
    <line x1="154" y1="230" x2="156" y2="245" stroke="#6B8E6F" stroke-width="1.5"/>
    <line x1="230" y1="235" x2="233" y2="250" stroke="#6B8E6F" stroke-width="1.5"/>
    <line x1="320" y1="228" x2="323" y2="243" stroke="#6B8E6F" stroke-width="1.5"/>
    <line x1="435" y1="232" x2="438" y2="247" stroke="#6B8E6F" stroke-width="1.5"/>
    <line x1="538" y1="230" x2="541" y2="245" stroke="#6B8E6F" stroke-width="1.5"/>
    <line x1="653" y1="234" x2="656" y2="249" stroke="#6B8E6F" stroke-width="1.5"/>
    <line x1="768" y1="231" x2="771" y2="246" stroke="#6B8E6F" stroke-width="1.5"/>
    <line x1="870" y1="236" x2="873" y2="251" stroke="#6B8E6F" stroke-width="1.5"/>
  </g>

  <!-- Wildflowers -->
  <g opacity="0.7">
    <circle cx="179" cy="243" r="3" fill="#E8C8A8"/>
    <circle cx="282" cy="238" r="3" fill="#D4A574"/>
    <circle cx="397" cy="245" r="3" fill="#E8C8A8"/>
    <circle cx="486" cy="240" r="3" fill="#D4A574"/>
    <circle cx="602" cy="247" r="3" fill="#E8C8A8"/>
    <circle cx="717" cy="242" r="3" fill="#D4A574"/>
    <circle cx="819" cy="248" r="3" fill="#E8C8A8"/>
    <circle cx="922" cy="244" r="3" fill="#D4A574"/>
  </g>

  <!-- Lone tree -->
  <g opacity="0.8">
    <ellipse cx="832" cy="205" rx="28" ry="35" fill="#6B8E6F"/>
    <rect x="829" y="235" width="6" height="25" fill="#6B5D4F"/>
  </g>

  <!-- Distant pine -->
  <g opacity="0.5">
    <polygon points="230,195 215,215 246,215" fill="#4A5E4C"/>
  </g>

  <!-- Year text with shadow -->
  <text x="514" y="172" font-family="Arial, sans-serif" font-size="80" font-weight="bold" fill="#6B8E6F" text-anchor="middle" opacity="0.3">2024</text>
  <text x="512" y="170" font-family="Arial, sans-serif" font-size="80" font-weight="bold" fill="white" text-anchor="middle">2024</text>
</svg>
