<svg xmlns="http://www.w3.org/2000/svg" viewBox="0 0 1024 300">
  <!-- Desert sage - cooler greens with light sand -->
  <defs>
    <linearGradient id="sky-2024" x1="0%" y1="0%" x2="0%" y2="100%">
      <stop offset="0%" style="stop-color:#D4E8D0;stop-opacity:1" />
      <stop offset="60%" style="stop-color:#C8D8C0;stop-opacity:1" />
      <stop offset="100%" style="stop-color:#B8C8B0;stop-opacity:1" />
    </linearGradient>
  </defs>

  <rect width="1024" height="300" fill="url(#sky-2024)" rx="12"/>

  <!-- Setting sun -->
  <circle cx="140" cy="150" r="42" fill="#F0E8D8" opacity="0.8"/>

  <!-- Distant mesa -->
  <path d="M 600 160 L 750 145 L 900 145 L 1024 155 L 1024 180 L 880 180 L 730 175 L 580 180 Z"
        fill="#9AA890" opacity="0.35"/>

  <!-- Mid-range rocky hills -->
  <path d="M 0 200 L 200 175 L 400 190 L 700 170 L 950 185 L 1024 195 L 1024 300 L 0 300 Z"
        fill="#8A9880" opacity="0.5"/>

  <!-- Desert floor with subtle green -->
  <path d="M 0 230 L 1024 235 L 1024 300 L 0 300 Z"
        fill="#B8C8A8"/>

  <!-- Sand dunes -->
  <ellipse cx="300" cy="265" rx="120" ry="18" fill="#A8B898" opacity="0.4"/>
  <ellipse cx="750" cy="270" rx="100" ry="15" fill="#A8B898" opacity="0.4"/>

  <!-- Joshua Trees -->
  <g opacity="0.7">
    <!-- Tree 1 -->
    <rect x="850" y="240" width="8" height="50" fill="#5A6850" rx="2"/>
    <rect x="835" y="250" width="7" height="30" fill="#5A6850" rx="2" transform="rotate(-35 838 250)"/>
    <rect x="865" y="250" width="7" height="30" fill="#5A6850" rx="2" transform="rotate(35 868 250)"/>
    <ellipse cx="841" cy="246" rx="12" ry="8" fill="#6A7860" opacity="0.8"/>
    <ellipse cx="854" cy="236" rx="14" ry="9" fill="#6A7860" opacity="0.8"/>
    <ellipse cx="867" cy="246" rx="12" ry="8" fill="#6A7860" opacity="0.8"/>

    <!-- Tree 2 -->
    <rect x="420" y="255" width="7" height="40" fill="#5A6850" rx="2"/>
    <rect x="408" y="262" width="6" height="25" fill="#5A6850" rx="2" transform="rotate(-30 411 262)"/>
    <ellipse cx="414" cy="258" rx="10" ry="7" fill="#6A7860" opacity="0.8"/>
    <ellipse cx="424" cy="251" rx="12" ry="8" fill="#6A7860" opacity="0.8"/>

    <!-- Tree 3 -->
    <rect x="620" y="217" width="5" height="25" fill="#6A7860" rx="1" opacity="0.6"/>
    <rect x="612" y="222" width="4" height="15" fill="#6A7860" rx="1" opacity="0.6" transform="rotate(-32 614 222)"/>
    <ellipse cx="616" cy="220" rx="7" ry="5" fill="#7A8870" opacity="0.5"/>
    <ellipse cx="623" cy="216" rx="8" ry="5" fill="#7A8870" opacity="0.5"/>
  </g>

  <!-- Small desert shrubs -->
  <g opacity="0.5">
    <ellipse cx="200" cy="270" rx="18" ry="10" fill="#7A8870"/>
    <ellipse cx="520" cy="275" rx="15" ry="8" fill="#7A8870"/>
    <ellipse cx="950" cy="272" rx="20" ry="11" fill="#7A8870"/>
  </g>

  <!-- Year text -->
  <text x="514" y="172" font-family="system-ui, -apple-system, sans-serif" font-size="80" font-weight="700" fill="#8A9880" text-anchor="middle" opacity="0.25">2024</text>
  <text x="512" y="170" font-family="system-ui, -apple-system, sans-serif" font-size="80" font-weight="700" fill="#FCFAF8" text-anchor="middle">2024</text>
</svg>
