<svg xmlns="http://www.w3.org/2000/svg" viewBox="0 0 1024 300">
  <!-- Desert landscape with rock formations -->
  <defs>
    <linearGradient id="sky-2025" x1="0%" y1="0%" x2="0%" y2="100%">
      <stop offset="0%" style="stop-color:#E8D4C8;stop-opacity:1" />
      <stop offset="100%" style="stop-color:#F0E6DC;stop-opacity:1" />
    </linearGradient>
  </defs>

  <rect width="1024" height="300" fill="url(#sky-2025)" rx="12"/>

  <!-- Distant mesas - warm terracotta -->
  <path d="M 0 170 L 0 160 L 230 160 L 256 170 L 320 170 L 346 165 L 576 165 L 614 170 L 1024 170 L 1024 300 L 0 300 Z"
        fill="#C8A890" opacity="0.4"/>

  <!-- Mid-distance plateaus - rust tones -->
  <path d="M 0 195 L 192 195 L 211 185 L 358 185 L 378 195 L 640 195 L 666 190 L 896 190 L 915 195 L 1024 195 L 1024 300 L 0 300 Z"
        fill="#B89878" opacity="0.5"/>

  <!-- Desert floor with dunes - sandy with green accent -->
  <path d="M 0 240 L 256 235 L 512 245 L 768 238 L 1024 242 L 1024 300 L 0 300 Z"
        fill="#D4B89C" opacity="0.5"/>

  <path d="M 0 260 L 384 255 L 640 262 L 1024 258 L 1024 300 L 0 300 Z"
        fill="#9FA886"/>

  <!-- Rock formations (arches style) -->
  <g opacity="0.7">
    <!-- Large arch -->
    <path d="M 666 205 L 666 235 L 678 240 L 730 240 L 742 235 L 742 205 Z"
          fill="#A8826C"/>
    <ellipse cx="704" cy="205" rx="38" ry="15" fill="#F0E6DC"/>

    <!-- Rock pillar -->
    <rect x="358" y="215" width="45" height="45" fill="#B89878"/>
    <ellipse cx="381" cy="215" rx="22" ry="8" fill="#B89878"/>

    <!-- Small spire -->
    <polygon points="192,245 173,265 211,265" fill="#9FA886"/>
    <rect x="186" y="240" width="13" height="5" fill="#9FA886"/>
  </g>

  <!-- Desert plants (yucca/joshua tree style) -->
  <g opacity="0.6">
    <!-- Plant 1 -->
    <line x1="870" y1="250" x2="870" y2="275" stroke="#6F8E68" stroke-width="4"/>
    <line x1="870" y1="260" x2="883" y2="255" stroke="#6F8E68" stroke-width="3"/>
    <line x1="870" y1="260" x2="858" y2="255" stroke="#6F8E68" stroke-width="3"/>

    <!-- Plant 2 -->
    <line x1="538" y1="252" x2="538" y2="272" stroke="#6F8E68" stroke-width="3"/>
    <line x1="538" y1="258" x2="548" y2="254" stroke="#6F8E68" stroke-width="2"/>
    <line x1="538" y1="258" x2="528" y2="254" stroke="#6F8E68" stroke-width="2"/>
  </g>

  <!-- Distant shrubs -->
  <g opacity="0.4">
    <circle cx="128" cy="248" r="4" fill="#8A9878"/>
    <circle cx="307" cy="252" r="3" fill="#8A9878"/>
    <circle cx="794" cy="246" r="4" fill="#8A9878"/>
    <circle cx="960" cy="250" r="3" fill="#8A9878"/>
  </g>

  <!-- Year text with shadow -->
  <text x="514" y="172" font-family="Arial, sans-serif" font-size="80" font-weight="bold" fill="#A8826C" text-anchor="middle" opacity="0.3">2025</text>
  <text x="512" y="170" font-family="Arial, sans-serif" font-size="80" font-weight="bold" fill="white" text-anchor="middle">2025</text>
</svg>
